<svg xmlns="http://www.w3.org/2000/svg" viewBox="0 0 194 194"><defs><style>.cls-1{fill:#5692ce;}</style></defs><g id="Layer_2" data-name="Layer 2"><g id="Layer_1-2" data-name="Layer 1"><path class="cls-1" d="M37.44,121.21a36.38,36.38,0,0,0,62.1,25.73l45.72-45.73A36.37,36.37,0,0,0,93.82,49.77L48.09,95.49A36.14,36.14,0,0,0,37.44,121.21Zm53.5-44.42A10.11,10.11,0,1,1,80.83,86.9,10.1,10.1,0,0,1,90.94,76.79ZM76.79,109.13a16.17,16.17,0,1,1-16.16,16.16A16.16,16.16,0,0,1,76.79,109.13Z"/><path class="cls-1" d="M185.93,64.67l-10.87,0a57.93,57.93,0,0,0-1.5-5.9c-.14-.43-.3-.85-.45-1.27-.53-1.58-1.11-3.13-1.78-4.67-.16-.36-.33-.71-.5-1.06q-1.14-2.47-2.54-4.86c-.11-.19-.22-.39-.34-.58a55.76,55.76,0,0,0-3.57-5.25l7-7.05A8.08,8.08,0,0,0,160,22.58l-7.2,7.2a56.25,56.25,0,0,0-23.45-10h0V8.08a8.08,8.08,0,0,0-16.16,0V19.33h0A56.1,56.1,0,0,0,103,21.41l-.18.06c-1.6.49-3.19,1-4.74,1.67s-3.24,1.41-4.81,2.23L82.39,14.49A8.08,8.08,0,0,0,71,25.92L80.05,35c-.17.17-.35.3-.52.47L65.24,49.77,50.17,34.7A8.08,8.08,0,0,0,38.74,46.13L53.81,61.2,37,78.06l-11-11A8.09,8.09,0,0,0,14.49,78.47l11.9,11.89-.06.11a56.23,56.23,0,0,0-7.73,18.65H8.08a8.08,8.08,0,0,0,0,16.16h9.37c.08,1.15.21,2.29.37,3.44,0,.3.08.61.13.91a56,56,0,0,0,2.66,10.62c0,.11.07.21.11.32a55.76,55.76,0,0,0,7.39,13.88L22.58,160A8.08,8.08,0,1,0,34,171.42l5.37-5.37a57.53,57.53,0,0,0,6.47,4.29l.38.22c1,.55,2,1.05,3,1.54l1.33.61c.93.42,1.85.84,2.79,1.2,1.26.5,2.53.94,3.82,1.34.68.21,1.37.38,2.06.56.92.25,1.83.47,2.75.67.64.14,1.28.27,1.93.38,1.19.22,2.38.39,3.58.52.38,0,.75.11,1.14.15h0v8.39a8.09,8.09,0,0,0,16.17,0v-9.21l.15,0a56.2,56.2,0,0,0,19.76-8l10.86,10.87A8.09,8.09,0,1,0,127,168.08l-10-10,16.86-16.86,14,14a8.08,8.08,0,1,0,11.43-11.43l-14-14,14.29-14.29c.17-.17.31-.35.47-.52l8.11,8.11a8.08,8.08,0,0,0,11.43-11.43l-9.9-9.9a56.55,56.55,0,0,0,5.42-15.54v0q.51-2.67.77-5.37h10.07a8.08,8.08,0,0,0,0-16.16ZM88.1,44.05l.52-.46a44.18,44.18,0,0,1,13.67-9.05l.11,0a44.22,44.22,0,0,1,10.77-2.93c1.34-.2,2.68-.33,4-.4h0c1.34-.07,2.68-.08,4,0h.08c1.33.05,2.66.16,4,.33h.06c1.33.17,2.66.41,4,.7a45.31,45.31,0,0,1,7.57,2.41l.49.22c1.06.47,2.12,1,3.15,1.51.41.21.8.48,1.21.71.8.46,1.6.9,2.37,1.42q1.81,1.2,3.54,2.6c1.14.94,2.25,1.93,3.32,3,.91.91,1.75,1.87,2.56,2.84s1.49,1.87,2.17,2.83c.81,1.14,1.56,2.3,2.25,3.49l0,.06c.68,1.17,1.3,2.38,1.87,3.6a1,1,0,0,1,0,.1c.56,1.22,1.06,2.46,1.51,3.72,0,0,0,.05,0,.08a40,40,0,0,1,1.16,3.87,44.6,44.6,0,0,1,1.25,8,.19.19,0,0,1,0,.08c.08,1.32.11,2.65.07,4v.13c0,1.32-.14,2.65-.29,4h0a44.35,44.35,0,0,1-1.07,5.7c0,.16-.07.32-.12.48a42.09,42.09,0,0,1-1.89,5.65,44.19,44.19,0,0,1-9.08,13.76c-.17.17-.31.36-.48.53l-31.7,31.69L108.4,149.51l-3.15,3.14a41.55,41.55,0,0,1-4.29,3.72c-.21.17-.42.31-.64.47a46.25,46.25,0,0,1-4.49,2.95h0a44.24,44.24,0,0,1-11.06,4.44,46.91,46.91,0,0,1-5.08,1l-.58.08a42.43,42.43,0,0,1-5.28.35,45.77,45.77,0,0,1-5.23-.34h0a43.46,43.46,0,0,1-5.17-.94l-.42-.1a44,44,0,0,1-14.94-6.89c-1-.68-1.91-1.4-2.83-2.16s-1.93-1.65-2.84-2.57a42.9,42.9,0,0,1-8.21-11.37c-.18-.36-.34-.74-.51-1.11-.56-1.18-1.07-2.38-1.51-3.59-.17-.46-.33-.91-.48-1.37-.41-1.25-.76-2.51-1.06-3.78-.09-.37-.19-.73-.27-1.09a48.1,48.1,0,0,1-.77-5,44.82,44.82,0,0,1,1.5-16.16,43.43,43.43,0,0,1,4.17-9.92h0a46.52,46.52,0,0,1,2.95-4.51l.46-.63a42.91,42.91,0,0,1,3.73-4.29l3.14-3.15L62.38,69.77,73.81,58.34Z"/></g></g></svg>