<svg xmlns="http://www.w3.org/2000/svg" viewBox="0 0 48 48"><defs><style>.a{fill:#418fde;}</style></defs><rect class="a" x="40" y="19" width="8" height="9"/><path class="a" d="M10,5A3.00336,3.00336,0,0,0,7,8h6A3.00331,3.00331,0,0,0,10,5Z"/><path class="a" d="M10,20A10,10,0,1,0,0,10,10.00362,10.00362,0,0,0,10,20ZM5,8A5,5,0,0,1,15,8v6a2.00006,2.00006,0,0,1-2,2H7a2.00006,2.00006,0,0,1-2-2Z"/><path class="a" d="M8,22.82959A12.96544,12.96544,0,0,1,.64069,19H0v9H8Z"/><rect class="a" x="20" y="19" width="8" height="9"/><path class="a" d="M43,15a3,3,0,0,0,2.12109-5.12109L36.12494.88281a3.01911,3.01911,0,0,0-.46277-.3789c-.06665-.04444-.13916-.07447-.20837-.113A2.93287,2.93287,0,0,0,35.1463.229a2.93484,2.93484,0,0,0-.292-.09057c-.08917-.02661-.17481-.061-.26727-.07935a3.0113,3.0113,0,0,0-1.174,0c-.09271.01856-.17852.05274-.26794.07959A2.928,2.928,0,0,0,32.8537.229a2.95264,2.95264,0,0,0-.30878.1626c-.06872.03833-.14075.06812-.20691.11231a3.00984,3.00984,0,0,0-.46295.3789l-8.99615,8.9961a2.99967,2.99967,0,1,0,4.24218,4.24218L31,10.24219V45a3,3,0,0,0,6,0V10.24219l3.87891,3.8789A2.99025,2.99025,0,0,0,43,15Z"/><path class="a" d="M20.87891,33.87891,17,37.75781V20.937a12.89777,12.89777,0,0,1-6,2.01221V37.75781l-3.87891-3.8789a2.99967,2.99967,0,0,0-4.24218,4.24218l8.99615,8.9961a3.00925,3.00925,0,0,0,.463.3789c.06623.04395.13819.07422.20691.11231a2.99884,2.99884,0,0,0,.30878.1626,2.9231,2.9231,0,0,0,.29138.09033c.08942.02685.17523.061.26794.07959a2.94576,2.94576,0,0,0,1.174,0,2.77309,2.77309,0,0,0,.26727-.07959,2.80976,2.80976,0,0,0,.292-.09033,2.8864,2.8864,0,0,0,.3075-.16162c.06927-.03907.14172-.06885.20837-.11329a3.00451,3.00451,0,0,0,.46277-.3789l8.99615-8.9961a2.99967,2.99967,0,0,0-4.24218-4.24218Z"/><rect class="a" x="8" y="10" width="4" height="4" rx="1"/></svg>