<svg xmlns="http://www.w3.org/2000/svg" viewBox="0 0 32 48"><defs><style>.a{fill:#418fde;}</style></defs><path class="a" d="M30,6H25a2.00587,2.00587,0,0,0-2-2H20a4,4,0,0,0-8,0H9A2.00587,2.00587,0,0,0,7,6H2A2.08679,2.08679,0,0,0,0,8.15v37.7A2.08684,2.08684,0,0,0,2,48H30a2.08684,2.08684,0,0,0,2-2.15V8.15A2.08679,2.08679,0,0,0,30,6ZM17,5a1,1,0,1,1-1-1A1.00291,1.00291,0,0,1,17,5ZM28,44H4V10H7a2.00591,2.00591,0,0,0,2,2H23a2.00591,2.00591,0,0,0,2-2h3ZM20,23.40909V25H12V23.40909A3.40909,3.40909,0,0,1,15.40909,20h1.18182A3.40909,3.40909,0,0,1,20,23.40909ZM14,16a2,2,0,1,1,2,2A2,2,0,0,1,14,16Zm1.5,13h8A1.5,1.5,0,0,1,25,30.5h0A1.5,1.5,0,0,1,23.5,32h-8A1.5,1.5,0,0,1,14,30.5h0A1.5,1.5,0,0,1,15.5,29ZM11,32H7V29h4Zm4.5,5h8A1.5,1.5,0,0,1,25,38.5h0A1.5,1.5,0,0,1,23.5,40h-8A1.5,1.5,0,0,1,14,38.5h0A1.5,1.5,0,0,1,15.5,37ZM11,40H7V37h4Z"/></svg>