<svg xmlns="http://www.w3.org/2000/svg" viewBox="0 0 222.26 222.26"><defs><style>.cls-1{fill:#5591cd;}</style></defs><g id="Layer_2" data-name="Layer 2"><g id="Layer_1-2" data-name="Layer 1"><path class="cls-1" d="M209.53,0H12.73A12.73,12.73,0,0,0,0,12.73v196.8a12.72,12.72,0,0,0,12.73,12.73h196.8a12.72,12.72,0,0,0,12.73-12.73V12.73A12.72,12.72,0,0,0,209.53,0Zm-5.79,203.74H18.52V18.52H203.74Z"/><path class="cls-1" d="M61.83,188.32a12.17,12.17,0,0,0,16.55-4.73l22.11-39.36,37.29,41.54c.08.09.19.16.27.25a12.21,12.21,0,0,0,.92.84c.29.25.58.52.89.74s.66.4,1,.6a7.78,7.78,0,0,0,2.13,1,11.77,11.77,0,0,0,1.15.36c.36.08.74.12,1.11.17s.85.11,1.27.13c.13,0,.24,0,.36,0h30.44a12.48,12.48,0,0,0,12.53-12.17V111.35c0-20.52-17-37.16-37.51-37.16h-5.46c-6.72,0-12.6,5.45-12.6,12.17v59.29l-27-30.44a12.17,12.17,0,0,0-19.74,2.18L57.1,171.76A12.17,12.17,0,0,0,61.83,188.32Z"/><circle class="cls-1" cx="113.45" cy="53.25" r="20.84"/></g></g></svg>