<svg xmlns="http://www.w3.org/2000/svg" viewBox="0 0 204.66 228.45"><defs><style>.cls-1{fill:#5692ce;}</style></defs><g id="Layer_2" data-name="Layer 2"><g id="Layer_1-2" data-name="Layer 1"><path class="cls-1" d="M202.28,8.81C150.72-5.69,99.16,25.46,47.59,9.52v95.19c51.57,15.94,103.13-14.61,154.69-.1a1.73,1.73,0,0,0,2.38-1.67v-91A3.44,3.44,0,0,0,202.28,8.81Z"/><path class="cls-1" d="M47.59,214.18H38.08V9.52a9.52,9.52,0,0,0-19,0V214.18H9.52A9.51,9.51,0,0,0,0,223.69v4.76H57.11v-4.76A9.51,9.51,0,0,0,47.59,214.18Z"/></g></g></svg>