<?xml version="1.0" encoding="utf-8"?>
<!-- Generator: Adobe Illustrator 24.1.2, SVG Export Plug-In . SVG Version: 6.00 Build 0)  -->
<svg version="1.1" id="Layer_1" xmlns="http://www.w3.org/2000/svg" xmlns:xlink="http://www.w3.org/1999/xlink" x="0px" y="0px"
	 viewBox="0 0 50.2 52.4" style="enable-background:new 0 0 50.2 52.4;" xml:space="preserve">
<style type="text/css">
	.st0{fill:#418FDE;}
</style>
<g id="Layer_2_1_">
	<g id="Icons">
		<path class="st0" d="M47.1,11.2h-44c-1.1,0-2,0.9-2,2v26c0,1.1,0.9,2,2,2h44c1.1,0,2-0.9,2-2v-26C49.1,12.1,48.2,11.2,47.1,11.2z
			 M14.4,31.7l-7,6c-0.8,0.7-2.1,0.6-2.8-0.2c-0.7-0.8-0.6-2.1,0.2-2.8l7-6c0.8-0.7,2.1-0.6,2.8,0.2C15.3,29.8,15.3,31,14.4,31.7z
			 M45.6,37.5c-0.7,0.8-2,0.9-2.8,0.2l-7-6c-0.8-0.7-0.9-2-0.2-2.8c0.7-0.8,2-0.9,2.8-0.2l7,6C46.3,35.4,46.4,36.7,45.6,37.5
			C45.6,37.5,45.6,37.5,45.6,37.5z M45.3,17.8l-19,14c-0.7,0.5-1.7,0.5-2.4,0l-19-14C4,17.2,3.8,15.9,4.5,15s1.9-1.1,2.8-0.4
			c0,0,0,0,0,0l17.8,13.1l17.8-13.1c0.9-0.7,2.1-0.5,2.8,0.4C46.4,15.9,46.2,17.2,45.3,17.8C45.3,17.8,45.3,17.8,45.3,17.8z"/>
	</g>
</g>
</svg>
