<?xml version="1.0" encoding="utf-8"?>
<!-- Generator: Adobe Illustrator 24.1.2, SVG Export Plug-In . SVG Version: 6.00 Build 0)  -->
<svg version="1.1" id="Layer_1" xmlns="http://www.w3.org/2000/svg" xmlns:xlink="http://www.w3.org/1999/xlink" x="0px" y="0px"
	 viewBox="0 0 50.2 52.4" style="enable-background:new 0 0 50.2 52.4;" xml:space="preserve">
<style type="text/css">
	.st0{fill:#418FDE;}
</style>
<g id="Layer_2_1_">
	<g id="Icons">
		<path class="st0" d="M48.1,11.2h-41c-0.6,0-1,0.4-1,1v6h16c1.9-3,6-3.9,9-2c0.8,0.5,1.5,1.2,2,2h10c1.7,0,3,1.3,3,3v11h2
			c0.6,0,1-0.4,1-1v-19C49.1,11.7,48.7,11.2,48.1,11.2z"/>
		<path class="st0" d="M43.1,20.2h-41c-0.6,0-1,0.4-1,1v19c0,0.6,0.4,1,1,1h41c0.6,0,1-0.4,1-1v-19C44.1,20.7,43.7,20.2,43.1,20.2z
			 M7.1,34.2c-1.7,0-3-1.3-3-3c0-1.3,0.8-2.4,2-2.8c0.3-0.1,0.7-0.2,1-0.2c1.7,0,3,1.3,3,3c0,0,0,0,0,0c0,0.3-0.1,0.7-0.2,1
			C9.5,33.4,8.4,34.2,7.1,34.2z M22.6,37.2c-3,0-5.6-2.1-6.3-5c-0.1-0.5-0.2-1-0.2-1.5c0-3.2,2.4-5.9,5.5-6.4c0.3-0.1,0.6-0.1,1-0.1
			c3.6,0,6.5,2.9,6.5,6.5c0,0,0,0,0,0c0,0.5-0.1,1-0.2,1.5C28.2,35.1,25.6,37.2,22.6,37.2z M38.1,33.7c-1.7,0-3-1.3-3-3
			c0-1.7,1.3-3,3-3c1.7,0,3,1.3,3,3c0,0.5-0.1,1-0.4,1.5C40.2,33.1,39.2,33.7,38.1,33.7z"/>
	</g>
</g>
</svg>
