<?xml version="1.0" encoding="utf-8"?>
<!-- Generator: Adobe Illustrator 24.1.2, SVG Export Plug-In . SVG Version: 6.00 Build 0)  -->
<svg version="1.1" id="Layer_1" xmlns="http://www.w3.org/2000/svg" xmlns:xlink="http://www.w3.org/1999/xlink" x="0px" y="0px"
	 viewBox="0 0 32 48" style="enable-background:new 0 0 32 48;" xml:space="preserve">
<style type="text/css">
	.st0{fill:#418FDE;}
</style>
<g id="Layer_2_1_">
	<g id="Icons">
		<path class="st0" d="M30,6H2C0.9,6,0,6.9,0,8v22h32V8C32,6.9,31.1,6,30,6z M23,20c0,0.9-0.2,1.8-0.5,2.7c0,0,0,0,0,0
			c-1.5,3.6-5.6,5.2-9.2,3.7c-1.7-0.7-3-2-3.7-3.7c0,0,0,0,0,0C9.2,21.8,9,20.9,9,20v-8.2c0-0.4,0.3-0.8,0.7-1l6-1.7
			c0.2-0.1,0.4-0.1,0.5,0l6,1.7c0.4,0.1,0.7,0.5,0.7,1V20z"/>
		<path class="st0" d="M6,4h20c1.1,0,2-0.9,2-2s-0.9-2-2-2H6C4.9,0,4,0.9,4,2S4.9,4,6,4z"/>
		<path class="st0" d="M0,48h12V38c0-1.1,0.9-2,2-2h4c1.1,0,2,0.9,2,2v10h12V32H0V48z"/>
	</g>
</g>
<g id="Layer_2_2_">
	<g id="Icons_1_">
		<path class="st0" d="M16.1,11.5c0-0.1-0.1-0.1-0.2,0c0,0,0,0,0,0c-0.6,0.8-4.1,5.4-4.1,7.5c0,2.3,1.9,4.2,4.2,4.2s4.2-1.9,4.2-4.2
			C20.2,16.9,16.8,12.3,16.1,11.5z M16,22c-1.1,0-2-0.9-2-2c0-1,1.6-3,1.9-3.4c0,0,0.1,0,0.1,0c0,0,0,0,0,0C16.4,17,18,19,18,20
			C18,21.1,17.1,22,16,22z"/>
	</g>
</g>
</svg>
