<?xml version="1.0" encoding="utf-8"?>
<!-- Generator: Adobe Illustrator 24.1.2, SVG Export Plug-In . SVG Version: 6.00 Build 0)  -->
<svg version="1.1" id="Layer_1" xmlns="http://www.w3.org/2000/svg" xmlns:xlink="http://www.w3.org/1999/xlink" x="0px" y="0px"
	 viewBox="0 0 50.2 52.4" style="enable-background:new 0 0 50.2 52.4;" xml:space="preserve">
<style type="text/css">
	.st0{fill:#418FDE;}
</style>
<g id="Layer_2_1_">
	<g id="Icons">
		<path class="st0" d="M48.6,25.2c-5.5-4.1-12.1-6.5-19-6.9l-4.6-2.6c-1.6-0.9-3.6-0.4-4.5,1.2c-0.4,0.6-0.5,1.4-0.4,2.1
			c-3.6,0.7-7,2.1-10.2,3.9l-5.7-1.5c-1.3-0.4-2.7,0.4-3.1,1.8c-0.4,1.3,0.4,2.7,1.8,3.1l0.3,0.1L3,26.3c-1.3,0.4-2.1,1.7-1.8,3.1
			c0.4,1.3,1.7,2.1,3.1,1.8l5.7-1.5c3.2,1.8,6.7,3.1,10.3,3.9c-0.5,1.5,0.4,3.1,1.9,3.6c1,0.3,2.1,0,2.9-0.7l2.2-2.2h0.2
			c7.6,0,15.1-2.4,21.2-7c0.6-0.4,0.6-1.2,0.2-1.8C48.8,25.4,48.7,25.3,48.6,25.2z M38.1,26.2c-1.1,0-2-0.9-2-2c0-1.1,0.9-2,2-2
			s2,0.9,2,2C40.1,25.3,39.2,26.2,38.1,26.2z"/>
	</g>
</g>
</svg>
