<svg xmlns="http://www.w3.org/2000/svg" viewBox="0 0 34 44"><defs><style>.a{fill:#418fde;}</style></defs><path class="a" d="M25,24.25653v6.92719a3,3,0,1,1-2,0V23.556A14.974,14.974,0,0,0,19,23H15a14.97509,14.97509,0,0,0-4,.556V31h1.00171A3.99827,3.99827,0,0,1,16,34.99835V41a1,1,0,0,1-1,1H13a1,1,0,0,1,0-2h1.00659V35a1.99986,1.99986,0,0,0-2-2H7.99829a2.01075,2.01075,0,0,0-2.00488,2.005V40H7a1,1,0,0,1,0,2H5a1,1,0,0,1-1-1V35a3.99992,3.99992,0,0,1,4-4H9V24.25647A14.99743,14.99743,0,0,0,0,38v6H34V38A14.99748,14.99748,0,0,0,25,24.25653Z"/><circle class="a" cx="17" cy="10" r="10"/></svg>