<svg xmlns="http://www.w3.org/2000/svg" viewBox="0 0 36.99906 48"><defs><style>.cls-1{fill:#418fde;}</style></defs><g id="Layer_2" data-name="Layer 2"><g id="Expanded_Icons" data-name="Expanded Icons"><rect class="cls-1" width="14" height="7"/><path class="cls-1" d="M1,42a6,6,0,0,0,12,0V9H1ZM4,17h6V28H4Z"/><path class="cls-1" d="M35.67,26.00977,32.99,25.71a7.118,7.118,0,0,0-.5-2.31006l.93-.71a1.5041,1.5041,0,1,0-1.84-2.37988l-.78.60986a7.12519,7.12519,0,0,0-2.03-1.3501l.22-1.8999a1.49965,1.49965,0,1,0-2.98-.33984l-.2,1.67969a6.97186,6.97186,0,0,0-3.17.85009l-2-2.33984a1.50332,1.50332,0,1,0-2.28,1.96l2.02,2.35986a6.96113,6.96113,0,0,0-1.13,2.34034l-1.58-.17041a1.49989,1.49989,0,0,0-.34,2.98046l1.78.19971a6.93371,6.93371,0,0,0,.74,2.1499l-1.27.97022a1.50412,1.50412,0,0,0,1.84,2.37988l1.4-1.08008a7.19779,7.19779,0,0,0,2.38,1.14991l-.19,1.57031a1.49564,1.49564,0,0,0,1.32,1.66015A.93585.93585,0,0,0,25.5,36a1.50146,1.50146,0,0,0,1.49-1.33008l.21-1.77978a6.98486,6.98486,0,0,0,2.06-.7002l1.1,1.29a1.51169,1.51169,0,0,0,2.12.16016A1.50415,1.50415,0,0,0,32.64,31.52l-1.09-1.27a7.09131,7.09131,0,0,0,.92-1.58008l2.86.32031A1.05205,1.05205,0,0,0,35.5,29a1.5,1.5,0,0,0,.17-2.99023ZM24,26a2,2,0,1,1,2-2A2.00583,2.00583,0,0,1,24,26Zm3.5,4A1.5,1.5,0,1,1,29,28.5,1.49793,1.49793,0,0,1,27.5,30Z"/></g></g></svg>