<?xml version="1.0" encoding="utf-8"?>
<!-- Generator: Adobe Illustrator 24.1.2, SVG Export Plug-In . SVG Version: 6.00 Build 0)  -->
<svg version="1.1" id="Layer_1" xmlns="http://www.w3.org/2000/svg" xmlns:xlink="http://www.w3.org/1999/xlink" x="0px" y="0px"
	 viewBox="0 0 50.2 52.4" style="enable-background:new 0 0 50.2 52.4;" xml:space="preserve">
<style type="text/css">
	.st0{fill:#418FDE;}
</style>
<g id="Layer_2_1_">
	<g id="Icons">
		<path class="st0" d="M4.1,17.2h42c1.7,0,3-1.3,3-3s-1.3-3-3-3h-42c-1.7,0-3,1.3-3,3S2.5,17.2,4.1,17.2z"/>
		<path class="st0" d="M46.1,35.2h-42c-1.7,0-3,1.3-3,3c0,1.7,1.3,3,3,3h42c1.7,0,3-1.3,3-3C49.1,36.6,47.8,35.2,46.1,35.2z"/>
		<path class="st0" d="M46.1,23.2h-42c-1.7,0-3,1.3-3,3s1.3,3,3,3h42c1.7,0,3-1.3,3-3S47.8,23.2,46.1,23.2z"/>
	</g>
</g>
</svg>
