<?xml version="1.0" encoding="utf-8"?>
<!-- Generator: Adobe Illustrator 24.1.2, SVG Export Plug-In . SVG Version: 6.00 Build 0)  -->
<svg version="1.1" id="Layer_1" xmlns="http://www.w3.org/2000/svg" xmlns:xlink="http://www.w3.org/1999/xlink" x="0px" y="0px"
	 viewBox="0 0 50.2 52.4" style="enable-background:new 0 0 50.2 52.4;" xml:space="preserve">
<style type="text/css">
	.st0{fill:#418FDE;}
</style>
<g id="Layer_2_1_">
	<g id="Icons">
		<path class="st0" d="M47.6,19.8c-0.7-0.7-1.9-0.7-2.6,0c0,0,0,0,0,0l-3.9,3.9l-3.9-3.9c-0.7-0.7-1.9-0.7-2.6,0
			c-0.7,0.7-0.7,1.9,0,2.6l3.9,3.9l-3.9,3.9c-0.7,0.7-0.7,1.9,0,2.6c0.7,0.7,1.9,0.7,2.6,0l3.9-3.9l3.9,3.9c0.7,0.7,1.9,0.7,2.6,0
			c0.7-0.7,0.7-1.9,0-2.6l-3.9-3.9l3.9-3.9C48.3,21.6,48.3,20.5,47.6,19.8z"/>
		<path class="st0" d="M15.6,19.8c-0.7-0.7-1.9-0.7-2.6,0c0,0,0,0,0,0l-3.9,3.9l-3.9-3.9c-0.7-0.7-1.9-0.7-2.6,0
			c-0.7,0.7-0.7,1.9,0,2.6l3.9,3.9l-3.9,3.9c-0.7,0.7-0.7,1.9,0,2.6c0.7,0.7,1.9,0.7,2.6,0l3.9-3.9l3.9,3.9c0.7,0.7,1.9,0.7,2.6,0
			c0.7-0.7,0.7-1.9,0-2.6l-3.9-3.9l3.9-3.9C16.3,21.6,16.3,20.5,15.6,19.8z"/>
		<path class="st0" d="M31.6,19.8c-0.7-0.7-1.9-0.7-2.6,0c0,0,0,0,0,0l-3.9,3.9l-3.9-3.9c-0.7-0.7-1.9-0.7-2.6,0
			c-0.7,0.7-0.7,1.9,0,2.6l3.9,3.9l-3.9,3.9c-0.7,0.7-0.7,1.9,0,2.6c0.7,0.7,1.9,0.7,2.6,0l3.9-3.9l3.9,3.9c0.7,0.7,1.9,0.7,2.6,0
			c0.7-0.7,0.7-1.9,0-2.6l-3.9-3.9l3.9-3.9C32.3,21.6,32.3,20.5,31.6,19.8z"/>
		<path class="st0" d="M3.1,16.2h44c1.1,0,2-0.9,2-2s-0.9-2-2-2h-44c-1.1,0-2,0.9-2,2S2,16.2,3.1,16.2z"/>
		<path class="st0" d="M47.1,36.2h-44c-1.1,0-2,0.9-2,2c0,1.1,0.9,2,2,2h44c1.1,0,2-0.9,2-2C49.1,37.1,48.2,36.2,47.1,36.2z"/>
	</g>
</g>
</svg>
