<?xml version="1.0" encoding="utf-8"?>
<!-- Generator: Adobe Illustrator 24.1.2, SVG Export Plug-In . SVG Version: 6.00 Build 0)  -->
<svg version="1.1" id="Layer_1" xmlns="http://www.w3.org/2000/svg" xmlns:xlink="http://www.w3.org/1999/xlink" x="0px" y="0px"
	 viewBox="0 0 50.2 52.4" style="enable-background:new 0 0 50.2 52.4;" xml:space="preserve">
<style type="text/css">
	.st0{fill-rule:evenodd;clip-rule:evenodd;fill:#418FDE;}
	.st1{fill:#418FDE;}
</style>
<g id="Layer_2_1_">
	<g id="Icons">
		<path class="st0" d="M44.5,25.2h-0.4v-3c0-2.8-2.2-5-5-5h-5v-3c0-1.7-1.3-3-3-3h-27c-1.7,0-3,1.3-3,3v23h5c0-3.3,2.7-6,6-6
			s6,2.7,6,6h12c0-2.5,1.6-4.8,4-5.6c0.6-0.2,1.3-0.4,2-0.4c3.3,0,6,2.7,6,6h5.5c0.8,0,1.5-0.7,1.5-1.5c0,0,0,0,0,0v-5.9
			C49.1,27.3,47.1,25.2,44.5,25.2C44.5,25.2,44.5,25.2,44.5,25.2z M38.2,20.2c1.6,0,2.9,1.3,2.9,2.9c0,0,0,0,0,0v2.1h-7v-5H38.2z
			 M22.1,23.2h-2v2c0,1.1-0.9,2-2,2c-1.1,0-2-0.9-2-2v-2h-2c-1.1,0-2-0.9-2-2c0-1.1,0.9-2,2-2h2v-2c0-1.1,0.9-2,2-2c1.1,0,2,0.9,2,2
			v2h2c1.1,0,2,0.9,2,2C24.1,22.3,23.2,23.2,22.1,23.2z"/>
		<circle class="st1" cx="12.1" cy="37.2" r="4"/>
		<path class="st0" d="M36.1,33.2c-2.2,0-4,1.8-4,4c0,2.2,1.8,4,4,4s4-1.8,4-4C40.1,35,38.3,33.2,36.1,33.2
			C36.1,33.2,36.1,33.2,36.1,33.2z"/>
	</g>
</g>
</svg>
