<svg id="Layer_1" data-name="Layer 1" xmlns="http://www.w3.org/2000/svg" viewBox="0 0 49.86 52.08"><defs><style>.cls-1{fill:#418fde;}</style></defs><path class="cls-1" d="M25,44.5a5.78,5.78,0,0,0,3.54,1h.45a6.09,6.09,0,0,0,3.34-1,7,7,0,0,0,2.45-2.68,7.66,7.66,0,0,0,.9-3.66v-.11a.48.48,0,0,0-.1-.28.33.33,0,0,0-.25-.11H1.82a1.67,1.67,0,0,0-1.27.58A2.09,2.09,0,0,0,.55,41a1.66,1.66,0,0,0,1.27.63H22.55A9,9,0,0,0,25,44.5ZM49.52,24a5.85,5.85,0,0,0-1-1.75,4,4,0,0,0-2.15-1.37V18.21A18.87,18.87,0,0,0,45,11.1a17.08,17.08,0,0,0-3.82-5.74h0A18.14,18.14,0,0,0,35.5,1.47,16.81,16.81,0,0,0,28.69,0a3.42,3.42,0,0,0-1,1.26,4,4,0,0,0-.35,1.64,3.7,3.7,0,0,0,1.08,2.57,3.28,3.28,0,0,0,2.42,1h.05a1.12,1.12,0,0,1,.84.38,1.33,1.33,0,0,1,.35.93A1.21,1.21,0,0,1,30.89,9h-.07a5.51,5.51,0,0,1-2.9-.82A6,6,0,0,1,25.82,6,6.57,6.57,0,0,1,25,2.9v0a5.58,5.58,0,0,1,.6-2.63L25.5.28A17.14,17.14,0,0,0,18,3.53a17.71,17.71,0,0,0-5.28,6.31,18.18,18.18,0,0,0-2,8.37v2.62A4,4,0,0,0,8.53,22.2a5.85,5.85,0,0,0-1,1.75,6,6,0,0,0,0,4.15,5.85,5.85,0,0,0,1,1.75,4.68,4.68,0,0,0,2.15,1.37v2.62a12.44,12.44,0,0,0,.1,1.37h24.5a2.43,2.43,0,0,1,2,.93,2.85,2.85,0,0,1,.75,2v.11a10.39,10.39,0,0,1-1.22,5,9.68,9.68,0,0,1-3.32,3.61A8.31,8.31,0,0,1,29,48.2H28.2a7.69,7.69,0,0,1-3.86-1,8.42,8.42,0,0,1-3-2.84l-.05-.06H15A22.8,22.8,0,0,0,21,49.78a14.09,14.09,0,0,0,7.53,2.3,14,14,0,0,0,6.94-1.92,20.41,20.41,0,0,0,5.68-4.7,24.53,24.53,0,0,0,3.82-5.93,13.88,13.88,0,0,0,1.42-5.66V31.22a4.63,4.63,0,0,0,2.15-1.37,6,6,0,0,0,1-5.9Zm-25,1.47a5.93,5.93,0,0,1-4.34,1.92,5.53,5.53,0,0,1-2.36-.56,6.12,6.12,0,0,1-2-1.45v.05a1.62,1.62,0,0,1,0-2.13,1.3,1.3,0,0,1,1.85-.09l.09.09a3.34,3.34,0,0,0,2.42,1,3,3,0,0,0,2.32-1,1.59,1.59,0,0,1,1.05-.43,1.25,1.25,0,0,1,.95.43,1.5,1.5,0,0,1,.4,1.07,1.46,1.46,0,0,1-.35,1.1Zm16.61,0a6.34,6.34,0,0,1-2,1.4,5.53,5.53,0,0,1-2.37.52,5.89,5.89,0,0,1-4.34-2v.05a1.54,1.54,0,0,1-.4-1.06,1.56,1.56,0,0,1,.4-1.07,1.24,1.24,0,0,1,1-.43,1.57,1.57,0,0,1,1,.43,3,3,0,0,0,2.32,1,3.34,3.34,0,0,0,2.42-1A1.3,1.3,0,0,1,41,23.17l.09.09a1.76,1.76,0,0,1,.06,2.16Z" transform="translate(-0.02 0)"/></svg>