<svg xmlns="http://www.w3.org/2000/svg" viewBox="0 0 210.25 209.12"><defs><style>.cls-1{fill:#5692ce;}</style></defs><g id="Layer_2" data-name="Layer 2"><g id="Layer_1-2" data-name="Layer 1"><path class="cls-1" d="M203.68,196H145.8L116.22,85.62a19.58,19.58,0,0,0,6.08-11l43.22-8.88,9.67,47.06c.93-.12,1.86-.24,2.79-.43,19.8-4.07,32.65-23,28.69-42.23l-8.6-41.83c-4-19.26-23.22-31.56-43-27.49-.93.19-1.83.45-2.73.7L162,48.54,117.3,57.73a19.58,19.58,0,0,0-32.84,6.75l-50,10.27a8.74,8.74,0,0,0-17,3v92H8.76a4.38,4.38,0,0,0-4.38,4.38v22.31a6.55,6.55,0,0,0,2.19,12.73H203.68a6.57,6.57,0,0,0,0-13.14ZM92.46,125.9h21l7,26.28h-35ZM80.72,169.71h44.43l7,26.27H73.68Zm28-61.33H97.15l4.73-17.63c.36,0,.69.11,1.05.11s.7-.09,1.06-.11ZM35,92.34a8.84,8.84,0,0,0,1.76-.18L86.47,82a19.87,19.87,0,0,0,3.18,3.67L60.07,196H48.18v-21.9a4.38,4.38,0,0,0-4.38-4.38H35Z"/></g></g></svg>