<?xml version="1.0" encoding="utf-8"?>
<!-- Generator: Adobe Illustrator 24.1.2, SVG Export Plug-In . SVG Version: 6.00 Build 0)  -->
<svg version="1.1" id="Layer_1" xmlns="http://www.w3.org/2000/svg" xmlns:xlink="http://www.w3.org/1999/xlink" x="0px" y="0px"
	 viewBox="0 0 50.2 52.4" style="enable-background:new 0 0 50.2 52.4;" xml:space="preserve">
<style type="text/css">
	.st0{fill:#418FDE;}
</style>
<g id="Layer_2_1_">
	<g id="Icons">
		<path class="st0" d="M6.6,24.7l2,0c0.8,0,1.5-0.7,1.5-1.5c0-0.8-0.7-1.5-1.5-1.5l-2,0c-0.8,0-1.5,0.7-1.5,1.5
			C5.1,24,5.8,24.7,6.6,24.7z"/>
		<path class="st0" d="M13.6,24.7l2,0c0.8,0,1.5-0.7,1.5-1.5c0-0.8-0.7-1.5-1.5-1.5l-2,0c-0.8,0-1.5,0.7-1.5,1.5
			C12.1,24,12.8,24.7,13.6,24.7z"/>
		<path class="st0" d="M20.6,24.7l2,0c0.8,0,1.5-0.7,1.5-1.5c0-0.8-0.7-1.5-1.5-1.5l-2,0c-0.8,0-1.5,0.7-1.5,1.5
			C19.1,24,19.8,24.7,20.6,24.7z"/>
		<path class="st0" d="M27.6,24.7l2,0c0.8,0,1.5-0.7,1.5-1.5c0-0.8-0.7-1.5-1.5-1.5l-2,0c-0.8,0-1.5,0.7-1.5,1.5
			C26.1,24,26.8,24.7,27.6,24.7z"/>
		<path class="st0" d="M34.6,24.7l2,0c0.8,0,1.5-0.7,1.5-1.5c0-0.8-0.7-1.5-1.5-1.5l-2,0c-0.8,0-1.5,0.7-1.5,1.5
			S33.8,24.7,34.6,24.7C34.6,24.7,34.6,24.7,34.6,24.7z"/>
		<path class="st0" d="M13.6,19.7l2,0c0.8,0,1.5-0.7,1.5-1.5c0-0.8-0.7-1.5-1.5-1.5l-2,0c-0.8,0-1.5,0.7-1.5,1.5
			C12.1,19,12.8,19.7,13.6,19.7C13.6,19.7,13.6,19.7,13.6,19.7z"/>
		<path class="st0" d="M20.6,19.7l2,0c0.8,0,1.5-0.7,1.5-1.5c0-0.8-0.7-1.5-1.5-1.5l-2,0c-0.8,0-1.5,0.7-1.5,1.5
			S19.8,19.7,20.6,19.7C20.6,19.7,20.6,19.7,20.6,19.7z"/>
		<path class="st0" d="M27.6,19.7l2,0c0.8,0,1.5-0.7,1.5-1.5c0-0.8-0.7-1.5-1.5-1.5l-2,0c-0.8,0-1.5,0.7-1.5,1.5
			C26.1,19,26.8,19.7,27.6,19.7z"/>
		<path class="st0" d="M20.6,14.7l2,0c0.8,0,1.5-0.7,1.5-1.5c0-0.8-0.7-1.5-1.5-1.5l-2,0c-0.8,0-1.5,0.7-1.5,1.5
			C19.1,14,19.8,14.7,20.6,14.7z"/>
		<path class="st0" d="M27.6,14.7l2,0c0.8,0,1.5-0.7,1.5-1.5c0-0.8-0.7-1.5-1.5-1.5l-2,0c-0.8,0-1.5,0.7-1.5,1.5
			C26.1,14,26.8,14.7,27.6,14.7z"/>
		<path class="st0" d="M34.6,19.7l2,0c0.8,0,1.5-0.7,1.5-1.5c0-0.8-0.7-1.5-1.5-1.5l-2,0c-0.8,0-1.5,0.7-1.5,1.5
			C33.1,19,33.8,19.7,34.6,19.7C34.6,19.7,34.6,19.7,34.6,19.7z"/>
		<path class="st0" d="M41.6,24.7l2,0c0.8,0,1.5-0.7,1.5-1.5c0-0.8-0.7-1.5-1.5-1.5l-2,0c-0.8,0-1.5,0.7-1.5,1.5
			S40.8,24.7,41.6,24.7C41.6,24.7,41.6,24.7,41.6,24.7z"/>
		<path class="st0" d="M48.1,26.7h-46c-0.6,0-1,0.4-1,1c0,7.2,5.8,13,13,13h22c7.2,0,13-5.8,13-13C49.1,27.2,48.7,26.7,48.1,26.7z"
			/>
	</g>
</g>
</svg>
