<?xml version="1.0" encoding="utf-8"?>
<!-- Generator: Adobe Illustrator 24.1.2, SVG Export Plug-In . SVG Version: 6.00 Build 0)  -->
<svg version="1.1" id="Layer_1" xmlns="http://www.w3.org/2000/svg" xmlns:xlink="http://www.w3.org/1999/xlink" x="0px" y="0px"
	 viewBox="0 0 50.2 52.4" style="enable-background:new 0 0 50.2 52.4;" xml:space="preserve">
<style type="text/css">
	.st0{fill:#418FDE;}
</style>
<g id="Layer_2_1_">
	<g id="Icons">
		<path class="st0" d="M46.1,33.2h-42c-1.7,0-3,1.3-3,3c0,1.7,1.3,3,3,3h42c1.7,0,3-1.3,3-3C49.1,34.6,47.8,33.2,46.1,33.2z"/>
		<path class="st0" d="M16.1,30.2h30L35.8,13.7c-0.3-0.4-0.8-0.6-1.3-0.3c-0.3,0.2-0.5,0.5-0.4,0.9v13l-8.3-13.6
			c-0.3-0.4-0.8-0.6-1.3-0.3c-0.3,0.2-0.5,0.5-0.4,0.9v13l-8.3-13.6c-0.3-0.4-0.8-0.6-1.3-0.3c-0.3,0.2-0.5,0.5-0.4,0.9v13L5.8,13.7
			c-0.3-0.4-0.8-0.6-1.3-0.3c-0.3,0.2-0.5,0.5-0.4,0.9v16H16.1z"/>
	</g>
</g>
</svg>
