<svg id="Layer_1" data-name="Layer 1" xmlns="http://www.w3.org/2000/svg" viewBox="0 0 36.58 48.02"><defs><style>.cls-1{fill:#418fde;}</style></defs><path class="cls-1" d="M36.35,3.87a1.21,1.21,0,0,0-.64-.4L18.57.06a1,1,0,0,0-.43,0L1,3.47a1.21,1.21,0,0,0-.64.4,1,1,0,0,0-.27.7V27.66A21.67,21.67,0,0,0,2.59,38a19.32,19.32,0,0,0,6.57,7.29,16.46,16.46,0,0,0,18.34,0A19.32,19.32,0,0,0,34.07,38a21.67,21.67,0,0,0,2.55-10.32V4.57A1,1,0,0,0,36.35,3.87ZM11.13,14.65a2,2,0,0,1,.55-.74,1.45,1.45,0,0,1,.84-.36l5.71-.82-2.68,8-4.42-4.42A1.11,1.11,0,0,0,10.6,16ZM29.75,24.78a1.66,1.66,0,0,1-.4,1.1,1.7,1.7,0,0,1-1,.58l-6.52,1-1.16,6.81-9.16,1.16L6.91,26.27,9.83,18.2l5.43,5.43a1.1,1.1,0,0,0,.81.33l.24-.05a1,1,0,0,0,.82-.72l3.26-9.74L24,17.1l4.37.86a1.88,1.88,0,0,1,1,.6,1.62,1.62,0,0,1,.38,1.08Z" transform="translate(-0.04 -0.03)"/></svg>