<?xml version="1.0" encoding="utf-8"?>
<!-- Generator: Adobe Illustrator 24.1.2, SVG Export Plug-In . SVG Version: 6.00 Build 0)  -->
<svg version="1.1" id="Layer_1" xmlns="http://www.w3.org/2000/svg" xmlns:xlink="http://www.w3.org/1999/xlink" x="0px" y="0px"
	 viewBox="0 0 50.2 52.4" style="enable-background:new 0 0 50.2 52.4;" xml:space="preserve">
<style type="text/css">
	.st0{fill:#418FDE;}
</style>
<g id="Layer_2_1_">
	<g id="Icons">
		<path class="st0" d="M47.1,32.2v-3.9c0-2.8-2.3-5.1-5.1-5.1h-2.9v-2.4c0-4.8-3.9-8.6-8.6-8.6H10.3c-2.9,0-5.2,2.3-5.2,5.2v0.8h-1
			c-1.7,0-3,1.3-3,3c0,0,0,0,0,0v7c0,1.1,0.9,2,2,2h2v2h0c-0.5,0-1,0.2-1.4,0.6c-0.8,0.8-0.8,2,0,2.8c0.4,0.4,0.9,0.6,1.4,0.6h4
			c0-0.1,0-0.2,0-0.3c0-0.1,0-0.1,0-0.2c0-3.6,2.9-6.5,6.5-6.5s6.5,2.9,6.5,6.5c0,0.1,0,0.1,0,0.2c0,0.1,0,0.2,0,0.3h9
			c0-0.1,0-0.2,0-0.3c0-0.1,0-0.1,0-0.2c0-3.6,2.9-6.5,6.5-6.5c3.6,0,6.5,2.9,6.5,6.5c0,0.1,0,0.1,0,0.2c0,0.1,0,0.2,0,0.3h3
			c1.1,0,2-0.9,2-2C49.1,33.1,48.2,32.2,47.1,32.2z M28.1,21.6v-5.4h2.3c0.2,0,0.3,0,0.5,0c0.1,0,0.3,0,0.4,0.1
			c1.9,0.4,3.4,1.9,3.8,3.8c0,0.1,0.1,0.3,0.1,0.4c0,0.2,0,0.3,0,0.5v2.3h-7V21.6z M12.1,26.2c-0.7,0-1.3-0.2-1.9-0.6
			c-0.1-0.1-0.2-0.1-0.3-0.2c-0.5-0.5-0.8-1.1-0.9-1.8c0-0.1,0-0.2,0-0.4v-6c0-0.6,0.4-1,1-1c0,0,0.1,0,0.1,0c0.5,0.1,0.9,0.5,0.9,1
			v6c0,0.1,0,0.2,0.1,0.4c0.2,0.5,0.8,0.8,1.3,0.6c0.3-0.1,0.5-0.3,0.6-0.6c0-0.1,0.1-0.2,0.1-0.4v-6c0-0.6,0.4-1,1-1s1,0.4,1,1v6
			c0,0.1,0,0.2,0,0.4C14.9,25.1,13.6,26.2,12.1,26.2z M18.1,26.2c-0.4,0-0.8-0.3-0.9-0.6c0-0.1-0.1-0.2-0.1-0.4v-8
			c0-0.4,0.3-0.8,0.7-1c0.1,0,0.2,0,0.3,0c0.3,0,0.7,0.2,0.9,0.5l3,4.9l0.1,0.2v-4.5c0-0.6,0.4-1,1-1s1,0.4,1,1v8
			c0,0.4-0.3,0.8-0.7,1c-0.1,0-0.2,0-0.3,0c-0.3,0-0.7-0.2-0.9-0.5l-0.1-0.2l-1.3-2l-0.2-0.4l-1-1.6l-0.5-0.9v4.5
			c0,0.1,0,0.2-0.1,0.4C18.9,26,18.5,26.2,18.1,26.2z"/>
		<path class="st0" d="M18.4,32.2c-1.6-1.3-4-1.3-5.6,0c-1.1,0.9-1.7,2.1-1.7,3.5c0,0.1,0,0.1,0,0.2c0,0.1,0,0.2,0,0.3
			c0.3,2.5,2.5,4.2,5,4c2.1-0.2,3.7-1.9,4-4c0-0.1,0-0.2,0-0.3c0-0.1,0-0.1,0-0.2C20.1,34.4,19.5,33.1,18.4,32.2z"/>
		<path class="st0" d="M40.4,32.2c-1.6-1.3-4-1.3-5.6,0c-1.1,0.9-1.7,2.1-1.7,3.5c0,0.1,0,0.1,0,0.2c0,0.1,0,0.2,0,0.3
			c0.3,2.5,2.5,4.2,5,4c2.1-0.2,3.7-1.9,4-4c0-0.1,0-0.2,0-0.3c0-0.1,0-0.1,0-0.2C42.1,34.4,41.5,33.1,40.4,32.2z"/>
	</g>
</g>
</svg>
