<svg xmlns="http://www.w3.org/2000/svg" viewBox="0 0 201 201"><defs><style>.cls-1{fill:#5692ce;}</style></defs><g id="Layer_2" data-name="Layer 2"><g id="Layer_1-2" data-name="Layer 1"><path class="cls-1" d="M192.63,92.13H175.38a74.9,74.9,0,0,0-16-38.65l14-14.08A8.35,8.35,0,0,0,161.6,27.6l-14.07,14a74.93,74.93,0,0,0-38.65-16V8.38a8.38,8.38,0,1,0-16.75,0V25.63a74.89,74.89,0,0,0-38.65,16L39.4,27.6A8.34,8.34,0,0,0,27.6,39.4l14,14.08a74.89,74.89,0,0,0-16,38.65H8.38a8.38,8.38,0,1,0,0,16.75H25.63a74.93,74.93,0,0,0,16,38.65l-14,14.07a8.35,8.35,0,1,0,11.8,11.81l14.08-14a74.9,74.9,0,0,0,38.65,16v17.25a8.38,8.38,0,0,0,16.75,0V175.38a74.94,74.94,0,0,0,38.65-16l14.07,14a8.29,8.29,0,0,0,11.81,0,8.26,8.26,0,0,0,0-11.81l-14-14.07a74.94,74.94,0,0,0,16-38.65h17.25a8.38,8.38,0,0,0,0-16.75Zm-127.72,0A10.47,10.47,0,1,1,75.38,81.66,10.47,10.47,0,0,1,64.91,92.13Zm52.34,50.25a20.94,20.94,0,1,1,20.94-20.94A20.95,20.95,0,0,1,117.25,142.38Z"/></g></g></svg>