<?xml version="1.0" encoding="utf-8"?>
<!-- Generator: Adobe Illustrator 24.1.2, SVG Export Plug-In . SVG Version: 6.00 Build 0)  -->
<svg version="1.1" id="Layer_1" xmlns="http://www.w3.org/2000/svg" xmlns:xlink="http://www.w3.org/1999/xlink" x="0px" y="0px"
	 viewBox="0 0 50.2 52.4" style="enable-background:new 0 0 50.2 52.4;" xml:space="preserve">
<style type="text/css">
	.st0{fill-rule:evenodd;clip-rule:evenodd;fill:#418FDE;}
	.st1{fill:#418FDE;}
</style>
<g id="Layer_2_2_">
	<g id="Icons_1_">
		<path class="st0" d="M44.1,25.2v-2c0-3.3-2.7-6-6-6h-4v-3c0-1.7-1.3-3-3-3c0,0,0,0,0,0h-27c-1.7,0-3,1.3-3,3c0,0,0,0,0,0v23h5
			c0-3.3,2.7-6,6-6s6,2.7,6,6h12c0-3.3,2.7-6,6-6s6,2.7,6,6h5c1.1,0,2-0.9,2-2v-5C49.1,27.5,46.9,25.2,44.1,25.2z M18.1,27.2
			c-2.2,0-4-1.8-4-4c0,0,0,0,0,0c0-2,3.3-6.2,3.9-7c0-0.1,0.1-0.1,0.2,0c0,0,0,0,0,0c0.6,0.8,3.9,5,3.9,7
			C22.1,25.4,20.3,27.2,18.1,27.2C18.1,27.2,18.1,27.2,18.1,27.2z M38.1,20.2c1.7,0,3,1.3,3,3c0,0,0,0,0,0v2h-7v-5H38.1z"/>
		<circle class="st1" cx="12.1" cy="37.2" r="4"/>
		<circle class="st1" cx="36.1" cy="37.2" r="4"/>
	</g>
</g>
</svg>
