<svg id="Layer_1" data-name="Layer 1" xmlns="http://www.w3.org/2000/svg" viewBox="0 0 168.65 231.29"><defs><style>.cls-1{fill:#5692ce;}</style></defs><path class="cls-1" d="M502.1,181.8H474.24C462,181.8,452,172.08,452,160.12s10-21.68,22.21-21.68h16.34a24.1,24.1,0,0,0,0-48.19H474.24c-38.81,0-70.39,31.34-70.39,69.87S435.43,230,474.24,230H502.1c12.25,0,22.21,9.73,22.21,21.68s-10,21.69-22.21,21.69H471.31a24.09,24.09,0,1,0,0,48.18H502.1c38.82,0,70.4-31.34,70.4-69.87S540.92,181.8,502.1,181.8ZM483.35,99.89a7.23,7.23,0,1,1-7.22,7.23A7.22,7.22,0,0,1,483.35,99.89Z" transform="translate(-403.85 -90.25)"/></svg>