<?xml version="1.0" encoding="utf-8"?>
<!-- Generator: Adobe Illustrator 25.2.3, SVG Export Plug-In . SVG Version: 6.00 Build 0)  -->
<svg version="1.1" id="Layer_1" xmlns="http://www.w3.org/2000/svg" xmlns:xlink="http://www.w3.org/1999/xlink" x="0px" y="0px"
	 viewBox="0 0 112 100" style="enable-background:new 0 0 112 100;" xml:space="preserve">
<path d="M107.2,20.4c-0.1,0-0.3,0-0.4,0c-3.8,0-7.4,1.1-10.4,2.9l0.1-0.1c-1.8,1.1-4,1.8-6.3,1.8s-4.5-0.7-6.4-1.8l0.1,0
	c-3-1.8-6.5-2.9-10.4-2.9c-0.1,0-0.3,0-0.4,0h0c-0.1,0-0.3,0-0.4,0c-3.8,0-7.4,1.1-10.4,2.9l0.1-0.1c-1.7,1.1-3.7,1.8-5.9,1.8
	c-0.1,0-0.2,0-0.4,0h0c-0.1,0-0.2,0-0.3,0c-2.2,0-4.3-0.7-6-1.8l0,0c-3-1.8-6.5-2.9-10.4-2.9c-0.1,0-0.3,0-0.4,0h0
	c-0.1,0-0.3,0-0.4,0c-3.8,0-7.4,1.1-10.4,2.9l0.1-0.1c-1.7,1.1-3.7,1.8-5.9,1.8c-0.1,0-0.2,0-0.4,0h0c-0.1,0-0.2,0-0.3,0
	c-2.2,0-4.3-0.7-6-1.8l0,0c-3-1.8-6.5-2.9-10.4-2.9c-0.1,0-0.3,0-0.4,0h0c-2.6,0-4.7,2.1-4.7,4.7s2.1,4.7,4.7,4.7l0,0
	c0.1,0,0.2,0,0.3,0c2.2,0,4.3,0.7,6,1.8l0,0c3,1.8,6.5,2.9,10.4,2.9c0.1,0,0.3,0,0.4,0h0c0.1,0,0.3,0,0.4,0c3.8,0,7.4-1.1,10.4-2.9
	l-0.1,0.1c1.7-1.1,3.7-1.8,5.9-1.8c0.1,0,0.2,0,0.4,0h0c0.1,0,0.2,0,0.3,0c2.2,0,4.3,0.7,6,1.8l0,0c3,1.8,6.5,2.9,10.4,2.9
	c0.1,0,0.3,0,0.4,0h0c0.1,0,0.3,0,0.4,0c3.8,0,7.4-1.1,10.5-2.9l-0.1,0.1c1.8-1.1,4-1.8,6.3-1.8s4.5,0.7,6.4,1.8l-0.1,0
	c3.1,1.8,6.8,2.9,10.8,2.9s7.7-1.1,10.9-2.9l-0.1,0.1c1.7-1.1,3.7-1.8,6-1.8c0.1,0,0.2,0,0.4,0h0c2.6,0,4.7-2.1,4.7-4.7
	S109.7,20.4,107.2,20.4L107.2,20.4L107.2,20.4z"/>
<path d="M107.2,1.8c-0.1,0-0.3,0-0.4,0c-3.8,0-7.4,1.1-10.4,2.9l0.1-0.1c-1.8,1.1-4,1.8-6.3,1.8s-4.5-0.7-6.4-1.8l0.1,0
	c-3-1.8-6.5-2.9-10.4-2.9c-0.1,0-0.3,0-0.4,0h0c-0.1,0-0.3,0-0.4,0c-3.8,0-7.4,1.1-10.4,2.9l0.1-0.1c-1.7,1.1-3.7,1.8-5.9,1.8
	c-0.1,0-0.2,0-0.4,0h0c-0.1,0-0.2,0-0.3,0c-2.2,0-4.3-0.7-6-1.8l0,0c-3-1.8-6.5-2.9-10.4-2.9c-0.1,0-0.3,0-0.4,0h0
	c-0.1,0-0.3,0-0.4,0c-3.8,0-7.4,1.1-10.4,2.9l0.1-0.1c-1.7,1.1-3.7,1.8-5.9,1.8c-0.1,0-0.2,0-0.4,0h0c-0.1,0-0.2,0-0.3,0
	c-2.2,0-4.3-0.7-6-1.8l0,0c-3-1.8-6.5-2.9-10.4-2.9c-0.1,0-0.3,0-0.4,0h0c-2.6,0-4.7,2.1-4.7,4.7s2.1,4.7,4.7,4.7l0,0
	c0.1,0,0.2,0,0.3,0c2.2,0,4.3,0.7,6,1.8l0,0c3,1.8,6.5,2.9,10.4,2.9c0.1,0,0.3,0,0.4,0h0c0.1,0,0.3,0,0.4,0c3.8,0,7.4-1.1,10.4-2.9
	l-0.1,0.1c1.7-1.1,3.7-1.8,5.9-1.8c0.1,0,0.2,0,0.4,0h0c0.1,0,0.2,0,0.3,0c2.2,0,4.3,0.7,6,1.8l0,0c3,1.8,6.5,2.9,10.4,2.9
	c0.1,0,0.3,0,0.4,0h0c0.1,0,0.3,0,0.4,0c3.8,0,7.4-1.1,10.5-2.9l-0.1,0.1c1.8-1.1,4-1.8,6.3-1.8s4.5,0.7,6.4,1.8l-0.1,0
	c3.1,1.8,6.8,2.9,10.8,2.9s7.7-1.1,10.9-2.9l-0.1,0.1c1.7-1.1,3.7-1.8,6-1.8c0.1,0,0.2,0,0.4,0h0c2.6,0,4.7-2.1,4.7-4.7
	S109.7,1.8,107.2,1.8L107.2,1.8L107.2,1.8z"/>
<path d="M0.2,46v16.3c0,0,0,0,0,0c10.3,0,18.6,8.3,18.6,18.6c0,0,0,0,0,0l0,0v20.9h18.6V80.9c0-10.3,8.3-18.6,18.6-18.6
	s18.6,8.3,18.6,18.6l0,0v20.9h18.6V80.9c0,0,0,0,0,0c0-10.3,8.3-18.6,18.6-18.6c0,0,0,0,0,0l0,0V46H0.2z"/>
</svg>
