<?xml version="1.0" encoding="utf-8"?>
<!-- Generator: Adobe Illustrator 25.2.3, SVG Export Plug-In . SVG Version: 6.00 Build 0)  -->
<svg version="1.1" id="Layer_1" xmlns="http://www.w3.org/2000/svg" xmlns:xlink="http://www.w3.org/1999/xlink" x="0px" y="0px"
	 viewBox="0 0 100 99.6" style="enable-background:new 0 0 100 99.6;" xml:space="preserve">
<path d="M19.4,74.8C19.4,74.8,19.4,74.8,19.4,74.8C19.4,74.8,19.4,74.8,19.4,74.8L19.4,74.8z M25.1,89.9c-1.5,1-3.4,1.6-5.3,1.6
	c-0.1,0-0.2,0-0.3,0c-0.1,0-0.2,0-0.3,0c-2,0-3.8-0.6-5.4-1.6l0,0c-2.6-1.6-5.8-2.6-9.3-2.6c-0.1,0-0.2,0-0.4,0h0
	c-2.3,0-4.2,1.9-4.2,4.2c0,2.3,1.9,4.2,4.2,4.2c0.1,0,0.2,0,0.3,0c2,0,3.8,0.6,5.4,1.6l0,0c2.6,1.6,5.8,2.6,9.3,2.6
	c0.1,0,0.2,0,0.4,0c0.1,0,0.2,0,0.3,0c3.4,0,6.6-1,9.4-2.6l-0.1,0c0.5-0.4,1.2-0.6,1.8-0.9v-8.7C28.7,88.1,26.8,88.9,25.1,89.9
	L25.1,89.9z M19.4,91.5C19.4,91.5,19.4,91.5,19.4,91.5C19.4,91.5,19.4,91.5,19.4,91.5L19.4,91.5z M19.8,74.8c-0.1,0-0.2,0-0.3,0
	c-0.1,0-0.2,0-0.3,0c-2,0-3.8-0.6-5.4-1.6l0,0c-2.6-1.6-5.8-2.6-9.3-2.6c-0.1,0-0.2,0-0.4,0h0c-2.3,0-4.2,1.9-4.2,4.2
	C0,77.1,1.9,79,4.2,79c0.1,0,0.2,0,0.3,0c2,0,3.8,0.6,5.4,1.6l0,0c2.6,1.6,5.8,2.6,9.3,2.6c0.1,0,0.2,0,0.4,0c0.1,0,0.2,0,0.3,0
	c3.4,0,6.6-1,9.3-2.6c0.5-0.3,1.1-0.6,1.7-0.9V71c-2.1,0.4-4,1.2-5.8,2.3C23.5,74.2,21.7,74.8,19.8,74.8z M34.7,61.2
	C34.7,61.2,34.7,61.2,34.7,61.2L34.7,61.2C34.7,61.2,34.7,61.2,34.7,61.2z M19.4,57C19.4,57,19.4,57,19.4,57
	C19.4,57,19.4,57,19.4,57L19.4,57z M95.8,13C95.8,13,95.8,13,95.8,13L95.8,13C95.9,13,95.8,13,95.8,13z M95.8,29.6
	C95.8,29.6,95.8,29.6,95.8,29.6L95.8,29.6C95.8,29.6,95.8,29.6,95.8,29.6z M95.8,44.5C95.8,44.5,95.8,44.5,95.8,44.5L95.8,44.5
	C95.8,44.5,95.8,44.5,95.8,44.5z M25.1,55.5c-1.5,1-3.4,1.6-5.3,1.6c-0.1,0-0.2,0-0.3,0c-0.1,0-0.2,0-0.3,0c-2,0-3.8-0.6-5.4-1.6
	l0,0c-2.6-1.6-5.8-2.6-9.3-2.6c-0.1,0-0.2,0-0.4,0h0C1.9,52.9,0,54.7,0,57s1.9,4.2,4.2,4.2c0.1,0,0.2,0,0.3,0c2,0,3.8,0.6,5.4,1.6
	l0,0c2.6,1.6,5.8,2.6,9.3,2.6c0.1,0,0.2,0,0.4,0c0.1,0,0.2,0,0.3,0c3.4,0,6.6-1,9.4-2.6l-0.1,0c0.5-0.4,1.2-0.6,1.8-0.9v-8.7
	C28.7,53.6,26.8,54.4,25.1,55.5L25.1,55.5z M95.8,61.2C95.8,61.2,95.8,61.2,95.8,61.2L95.8,61.2C95.8,61.2,95.8,61.2,95.8,61.2z
	 M95.8,79C95.8,79,95.8,79,95.8,79L95.8,79C95.8,79,95.8,79,95.8,79z M50,8.8L50,8.8C50,8.8,50,8.8,50,8.8C50,8.8,50,8.8,50,8.8z
	 M95.8,95.6C95.8,95.6,95.8,95.6,95.8,95.6C95.8,95.6,95.8,95.6,95.8,95.6L95.8,95.6z M34.7,29.6C34.7,29.6,34.7,29.6,34.7,29.6
	L34.7,29.6C34.7,29.6,34.7,29.6,34.7,29.6z M34.7,13L34.7,13C34.7,13,34.7,13,34.7,13C34.7,13,34.7,13,34.7,13z M34.7,44.5
	L34.7,44.5C34.7,44.5,34.7,44.5,34.7,44.5C34.7,44.5,34.7,44.5,34.7,44.5z M100,91.5c0-2.3-1.9-4.2-4.2-4.2v0c-0.1,0-0.2,0-0.3,0
	c-3.4,0-6.6,1-9.4,2.6l0.1,0c-1.6,1-3.6,1.6-5.7,1.6s-4-0.6-5.7-1.6l0,0c-2.5-1.5-5.5-2.5-8.6-2.6l2,8.7c1,0.3,1.9,0.7,2.7,1.2l0,0
	c2.8,1.6,6.1,2.6,9.6,2.6s6.9-1,9.7-2.6l-0.1,0c1.5-1,3.3-1.6,5.3-1.6c0.1,0,0.2,0,0.3,0C98.1,95.6,100,93.8,100,91.5z M60.9,87.3
	L59.7,79l-1.2-8.2l-1.3-8.4L56,54.1l-1-6.6l-1.2-8.3l-0.8-5.6l-1.2-8.1l-1.2-8.2l-1.3-8.5l-1.3-8.8h-9.6v100h11.2c0.1,0,0.1,0,0.2,0
	c0.1,0,0.2,0,0.4,0c0.1,0,0.2,0,0.3,0c0,0,0.1,0,0.1,0h12.3l-0.6-3.7L60.9,87.3z M40.8,61.2C40.8,61.2,40.8,61.2,40.8,61.2
	L40.8,61.2C40.8,61.2,40.8,61.2,40.8,61.2z M40.8,95.6C40.8,95.6,40.8,95.6,40.8,95.6C40.8,95.6,40.8,95.6,40.8,95.6L40.8,95.6z
	 M40.8,79C40.8,79,40.8,79,40.8,79C40.8,79,40.8,79,40.8,79L40.8,79z M40.8,44.5C40.8,44.5,40.8,44.5,40.8,44.5
	C40.8,44.5,40.8,44.5,40.8,44.5L40.8,44.5z M40.8,29.6C40.8,29.6,40.8,29.6,40.8,29.6C40.8,29.6,40.8,29.6,40.8,29.6L40.8,29.6z
	 M40.8,13C40.8,13,40.8,13,40.8,13C40.8,13,40.8,13,40.8,13L40.8,13z M50.5,74.8C50.5,74.8,50.5,74.8,50.5,74.8
	C50.5,74.8,50.5,74.8,50.5,74.8L50.5,74.8z M50.5,91.5C50.5,91.5,50.5,91.5,50.5,91.5L50.5,91.5C50.5,91.5,50.5,91.5,50.5,91.5z
	 M50.5,57C50.5,57,50.5,57,50.5,57L50.5,57C50.5,57,50.5,57,50.5,57z M50.5,40.4L50.5,40.4C50.5,40.4,50.5,40.4,50.5,40.4
	C50.5,40.4,50.5,40.4,50.5,40.4z M50.5,25.5C50.5,25.5,50.5,25.5,50.5,25.5L50.5,25.5C50.6,25.5,50.5,25.5,50.5,25.5z M34.7,79
	L34.7,79C34.7,79,34.7,79,34.7,79C34.7,79,34.7,79,34.7,79z M19.8,40.4c-0.1,0-0.2,0-0.3,0c-0.1,0-0.2,0-0.3,0c-2,0-3.8-0.6-5.4-1.6
	l0,0c-2.6-1.6-5.8-2.6-9.3-2.6c-0.1,0-0.2,0-0.4,0h0c-2.3,0-4.2,1.9-4.2,4.2s1.9,4.2,4.2,4.2c0.1,0,0.2,0,0.3,0c2,0,3.8,0.6,5.4,1.6
	l0,0c2.6,1.6,5.8,2.6,9.3,2.6c0.1,0,0.2,0,0.4,0c0.1,0,0.2,0,0.3,0c3.4,0,6.6-1,9.3-2.6c0.5-0.3,1.1-0.6,1.7-0.9v-8.7
	c-2.1,0.4-4,1.2-5.8,2.3C23.5,39.8,21.7,40.4,19.8,40.4z M19.4,25.5C19.4,25.5,19.4,25.5,19.4,25.5C19.4,25.5,19.4,25.5,19.4,25.5
	L19.4,25.5z M19.4,40.4C19.4,40.4,19.4,40.4,19.4,40.4C19.4,40.4,19.4,40.4,19.4,40.4L19.4,40.4z M25.1,23.9c-1.5,1-3.4,1.6-5.3,1.6
	c-0.1,0-0.2,0-0.3,0c-0.1,0-0.2,0-0.3,0c-2,0-3.8-0.6-5.4-1.6l0,0c-2.6-1.6-5.8-2.6-9.3-2.6c-0.1,0-0.2,0-0.4,0h0
	c-2.3,0-4.2,1.9-4.2,4.2c0,2.3,1.9,4.2,4.2,4.2c0.1,0,0.2,0,0.3,0c2,0,3.8,0.6,5.4,1.6l0,0c2.6,1.6,5.8,2.6,9.3,2.6
	c0.1,0,0.2,0,0.4,0c0.1,0,0.2,0,0.3,0c3.4,0,6.6-1,9.4-2.6l-0.1,0c0.5-0.4,1.1-0.6,1.8-0.9v-8.7C28.7,22.1,26.8,22.9,25.1,23.9
	L25.1,23.9z M19.8,8.8c-0.1,0-0.2,0-0.3,0c-0.1,0-0.2,0-0.3,0c-2,0-3.8-0.6-5.4-1.6l0,0C11.2,5.6,8,4.6,4.5,4.6c-0.1,0-0.2,0-0.4,0
	h0C1.9,4.6,0,6.5,0,8.8C0,11.1,1.9,13,4.2,13c0.1,0,0.2,0,0.3,0c2,0,3.8,0.6,5.4,1.6l0,0c2.6,1.6,5.8,2.6,9.3,2.6c0.1,0,0.2,0,0.4,0
	c0.1,0,0.2,0,0.3,0c3.4,0,6.6-1,9.3-2.6c0.5-0.3,1.1-0.6,1.7-0.9V5c-2.1,0.4-4,1.2-5.8,2.3C23.5,8.2,21.7,8.8,19.8,8.8z M19.4,8.8
	C19.4,8.8,19.4,8.8,19.4,8.8C19.4,8.8,19.4,8.8,19.4,8.8L19.4,8.8z M34.7,95.6L34.7,95.6C34.7,95.6,34.7,95.6,34.7,95.6
	C34.7,95.6,34.7,95.6,34.7,95.6z"/>
</svg>
