<?xml version="1.0" encoding="utf-8"?>
<!-- Generator: Adobe Illustrator 25.2.3, SVG Export Plug-In . SVG Version: 6.00 Build 0)  -->
<svg version="1.1" id="Layer_1" xmlns="http://www.w3.org/2000/svg" xmlns:xlink="http://www.w3.org/1999/xlink" x="0px" y="0px"
	 viewBox="0 0 71 100" style="enable-background:new 0 0 71 100;" xml:space="preserve">
<path d="M36.3,0.4C36.1,0.2,35.8,0,35.4,0c-0.4,0-0.7,0.2-0.9,0.4C29,7.5,0,45.7,0,63.8v0.4C0,83.8,15.8,99.8,35.4,100
	C55,99.8,70.8,83.8,70.8,64.2v-0.4C70.8,45.7,41.8,7.5,36.3,0.4z M27.9,72.1c-0.1,0-0.1-0.1-0.2-0.1c2-5.9,4.1-11.8,6.2-17.9H21.7
	c7-8.5,13.8-16.8,20.6-25.1c0.1,0,0.2,0.1,0.3,0.1c-2,5.8-4,11.7-6.1,17.7h12.2C41.6,55.4,34.8,63.8,27.9,72.1z"/>
</svg>
