<?xml version="1.0" encoding="utf-8"?>
<!-- Generator: Adobe Illustrator 25.2.3, SVG Export Plug-In . SVG Version: 6.00 Build 0)  -->
<svg version="1.1" id="Layer_1" xmlns="http://www.w3.org/2000/svg" xmlns:xlink="http://www.w3.org/1999/xlink" x="0px" y="0px"
	 viewBox="0 0 69.3 67.7" style="enable-background:new 0 0 69.3 67.7;" xml:space="preserve">
<path d="M68.5,64.8c-0.1-0.4-0.2-0.7-0.3-1c-3.4-10.7-6.8-21.3-10-32C56,24.5,54.8,17.1,57,9.6c0.7-2.4,0.1-3.9-2.2-5.1
	c-2-1-4.1-1.9-6.3-2.4c-8.9-2.1-17.8-1.8-26.7,0c-2.3,0.5-4.6,1.4-6.8,2.4c-2.3,1.1-3.3,3.3-2.7,5.3c2.1,6.8,1,13.5-0.8,20.1
	C8.3,41.2,4.5,52.4,1,63.6c-0.8,2.6-0.1,3.6,2.6,3.6c10.4,0,20.8,0,31.2,0c10.6,0,21.3,0,31.9,0C68.1,67.1,68.8,66.2,68.5,64.8z
	 M27.5,55.6c-0.1,0-0.1-0.1-0.2-0.1c2.1-6,4.1-11.9,6.2-17.9c-4.1,0-8,0-12.2,0c7-8.5,13.8-16.8,20.6-25.1c0.1,0,0.2,0.1,0.3,0.1
	c-2,5.8-4,11.7-6.1,17.7c4.1,0,8,0,12.2,0C41.2,38.9,34.4,47.2,27.5,55.6z"/>
</svg>
