<?xml version="1.0" encoding="utf-8"?>
<!-- Generator: Adobe Illustrator 25.2.3, SVG Export Plug-In . SVG Version: 6.00 Build 0)  -->
<svg version="1.1" id="Layer_1" xmlns="http://www.w3.org/2000/svg" xmlns:xlink="http://www.w3.org/1999/xlink" x="0px" y="0px"
	 viewBox="0 0 132.5 132.1" style="enable-background:new 0 0 132.5 132.1;" xml:space="preserve">
<g>
	<path d="M57.4,46.4h17.8c2,0,3.6,1.6,3.6,3.6v17.8c0,2-1.6,3.6-3.6,3.6H57.4c-2,0-3.6-1.6-3.6-3.6V50C53.8,48,55.4,46.4,57.4,46.4z
		"/>
	<g>
		<path d="M73.4,77h17.8c2,0,3.6,1.6,3.6,3.6v17.8c0,2-1.6,3.6-3.6,3.6H73.4c-2,0-3.6-1.6-3.6-3.6V80.6C69.8,78.6,71.4,77,73.4,77z"
			/>
		<path d="M41.3,77h17.8c2,0,3.6,1.6,3.6,3.6v17.8c0,2-1.6,3.6-3.6,3.6H41.3c-2,0-3.6-1.6-3.6-3.6V80.6C37.8,78.6,39.4,77,41.3,77z"
			/>
	</g>
	<g>
		<path d="M27.1,107.6h17.8c2,0,3.6,1.6,3.6,3.6v17.8c0,2-1.6,3.6-3.6,3.6H27.1c-2,0-3.6-1.6-3.6-3.6v-17.8
			C23.5,109.2,25.1,107.6,27.1,107.6z"/>
		<path d="M57.3,107.6h17.8c2,0,3.6,1.6,3.6,3.6v17.8c0,2-1.6,3.6-3.6,3.6H57.3c-2,0-3.6-1.6-3.6-3.6v-17.8
			C53.8,109.2,55.4,107.6,57.3,107.6z"/>
		<path d="M87.6,107.6h17.8c2,0,3.6,1.6,3.6,3.6v17.8c0,2-1.6,3.6-3.6,3.6H87.6c-2,0-3.6-1.6-3.6-3.6v-17.8
			C84,109.2,85.6,107.6,87.6,107.6z"/>
	</g>
</g>
<path d="M129.1,35.4L69.7,0.9c-1-0.6-2.2-0.9-3.5-0.9s-2.5,0.3-3.5,1l0,0L3.4,35.4c-2.1,1.2-3.4,3.4-3.4,6c0,0,0,0,0,0l0,0v84.2
	c0,3.8,3.1,6.9,6.9,6.9s6.9-3.1,6.9-6.9l0,0V45.4l52.4-30.5l52.4,30.5v80.2c0,3.8,3.1,6.9,6.9,6.9c3.8,0,6.9-3.1,6.9-6.9l0,0V41.4
	c0,0,0,0,0,0C132.5,38.9,131.1,36.7,129.1,35.4L129.1,35.4L129.1,35.4z"/>
</svg>
