<?xml version="1.0" encoding="utf-8"?>
<!-- Generator: Adobe Illustrator 25.2.3, SVG Export Plug-In . SVG Version: 6.00 Build 0)  -->
<svg version="1.1" id="Layer_1" xmlns="http://www.w3.org/2000/svg" xmlns:xlink="http://www.w3.org/1999/xlink" x="0px" y="0px"
	 viewBox="0 0 107.7 107.7" style="enable-background:new 0 0 107.7 107.7;" xml:space="preserve">
<g>
	<path d="M18.5,59.7c1.8,0,3.1-1.4,3.1-3.1c0-1.7-1.5-3-3.2-2.9c-1.7,0.1-3,1.4-3,3C15.3,58.4,16.8,59.7,18.5,59.7z"/>
	<path d="M30.6,56.2c1.7,0,3.1-1.4,3.1-3.1c0-1.7-1.5-3-3.2-3c-1.6,0.1-3,1.5-3,3C27.5,54.8,28.9,56.2,30.6,56.2z"/>
	<path d="M38,63c1.7,0,3.2-1.5,3.1-3.1c0-1.6-1.5-3-3.2-3c-1.7,0-3,1.4-3,3C34.8,61.6,36.3,63,38,63z"/>
	<path d="M38.3,47.3c1.7,0,3.2-1.3,3.2-3c0-1.7-1.4-3-3.2-3c-1.7,0-3.2,1.4-3.1,3C35.2,45.9,36.6,47.3,38.3,47.3z"/>
	<path d="M18.8,66.2c-1.7,0-3.1,1.4-3.1,3.1c0,1.6,1.4,2.9,3.1,3c1.7,0,3.2-1.4,3.2-3C22,67.5,20.6,66.2,18.8,66.2z"/>
	<path d="M27.6,67.1c1.7,0,3.2-1.4,3.2-3c0-1.7-1.4-3-3.2-3c-1.8,0-3.1,1.3-3.1,3C24.6,65.8,25.9,67.1,27.6,67.1z"/>
	<path d="M77.9,34.8c7.3-12,17.1-21.1,29.8-26.7V0C93.9,2.2,81.8,8.7,71.3,18.1c-12,10.8-19.4,24.3-24,39.3c-1.4,4.4-2.2,9-3.3,13.7
		c-0.6-0.2-1.2-0.5-1.8-0.6c-5.2-1.5-10.1-1-14.6,2.2c-1.5,1.1-1.7,2.8-0.7,4.1c1,1.3,2.7,1.5,4.2,0.4c4.2-2.8,9.4-2.4,12.9,1.2
		c1,1,2.1,1.6,3.5,1.2c1.5-0.5,1.9-1.6,2-3c0.8-11.4,4.1-22.2,9.2-32.4c6.1-12.3,14.8-22.4,26.9-29.5c0.6-0.4,1.2-0.7,1.8-1
		c0.1,0.1,0.2,0.3,0.3,0.4c-0.3,0.2-0.7,0.4-0.9,0.6c-6.2,5.5-11.3,11.9-15.4,19.1c-7.8,13.8-12.5,28.7-15.8,44.1
		C55,82,54.3,86.3,53.4,91c-2.8-4.5-6.3-7.9-11.6-8.8c-5.3-0.9-9.8,1.1-14,4c-0.3-0.4-0.4-0.6-0.6-0.9c-0.2-0.3-0.4-0.5-0.5-0.8
		c-3.3-4.3-7.5-6.7-13.1-6c-6,0.8-10.5,3.6-12.9,9.1c-1.1,2.5-0.7,4.2,1.1,4.9c1.9,0.8,3.2-0.1,4.3-2.7c1.6-3.6,4.7-5.2,8.5-5.7
		c3.3-0.4,5.7,1.2,7.4,3.7c0.8,1.2,1.4,2.5,2,3.9c1,2.3,3.2,2.8,5.1,1.1c0.9-0.8,1.7-1.6,2.6-2.2c6.7-5,13-3.8,16.8,3.6
		c1.6,3.1,2.5,6.7,3.5,10c0.6,1.8,1.5,2.8,3.1,2.8c1.6-0.1,2.7-1.2,2.9-3.1c1-11.1,2.9-22,5.6-32.8C66.8,58.5,71,46.1,77.9,34.8z"/>
	<path d="M107.7,14.2c-4.6,2.9-8.3,6.8-10.9,11.7c-2.1,4-4.8,7.3-8.2,10.4c-5.4,4.8-9.1,10.8-10.3,17.9c-1,6.1-2.2,12.1-2.8,18.2
		c-0.4,3.4-1.3,6.3-3.4,9c-2.9,3.6-5.6,7.5-6.5,12.1c-0.9,4.6-1.6,9.1-2.5,14h44.7V14.2z"/>
	<path d="M3.3,58.7c1.7,0.1,3.2-1.3,3.2-2.9c0-1.7-1.4-3.1-3.1-3.1c-1.7,0-3.2,1.3-3.2,3C0.3,57.3,1.7,58.6,3.3,58.7z"/>
	<path d="M38.1,93.9c-1.8,0-3.2,1.3-3.2,3c0,1.6,1.5,3,3.2,3c1.7,0,3-1.3,3.1-2.9C41.2,95.3,39.8,93.9,38.1,93.9z"/>
	<path d="M27.7,99.6c-2.7-3.5-6.1-5.7-10-5.7C9.9,94,5.4,98.3,3.1,103.8c-0.6,1.5,0.1,3,1.6,3.6c1.4,0.6,2.9,0,3.8-1.4
		c0.9-1.4,1.6-2.9,2.8-4.1c3-3.1,7.7-3.2,10.6-0.1c1.1,1.1,1.9,2.6,2.7,3.9c1,1.8,2.6,2.5,4.2,1.7c1.5-0.7,2.1-2.3,1.2-4.1
		C29.3,102,28.6,100.7,27.7,99.6z"/>
</g>
</svg>
